# xmcd
#
# Track frame offsets:
#	225
#	15291
#	36338
#	59319
#	82624
#	102604
#	129825
#	150562
#	173322
#	193754
#	217731
#	246757
#	264220
#
# Disc length: 3798 seconds
#
# Revision: 1
# Processed by: cddbd v1.5.2PL0 Copyright (c) Steve Scherf et al.
# Submitted via: EasyCDDAExtractor 16.0.9.1
#
DISCID=920ed30d
DTITLE=Nhieu Nghe Si - NS Hoang Hiep
DYEAR=1900
DGENRE=Vietnamese
TTITLE0=Huong Duong - Loi Gioi Thieu
TTITLE1=My Tam - Cau Ho Ben Bo Hien Luong
TTITLE2=AC&M - Dong Doi
TTITLE3=Thu Giang - Nho Ve Ha Noi
TTITLE4=Cao Minh - La Do
TTITLE5=Dong Dao - Dat Mui Ca Mau
TTITLE6=To Thanh Phuong - Dat Que Ta Menh Mong
TTITLE7=My Le - Noi Em Gap Anh
TTITLE8=Quang Ly - Ngon Den Dung Gac
TTITLE9=Bao Yen - Vieng Lang Bac
TTITLE10=Thanh Su and Dong Dao - Truong Son Dong, Truong Son Tay
TTITLE11=Thu Giang - Co Gai Vot Chong
TTITLE12=My Tam - Em Van Anh Ve
EXTD=
EXTT0=
EXTT1=
EXTT2=
EXTT3=
EXTT4=
EXTT5=
EXTT6=
EXTT7=
EXTT8=
EXTT9=
EXTT10=
EXTT11=
EXTT12=
PLAYORDER=
